<?xml version="1.0" encoding="UTF-8"?>
<svg id="Layer_1" data-name="Layer 1" xmlns="http://www.w3.org/2000/svg" viewBox="0 0 50 50">
  <defs>
    <style>
      .cls-1 {
        fill: #86c87f;
      }

      .cls-2 {
        fill: #f3f3f3;
      }
    </style>
  </defs>
  <path class="cls-1" d="M24.96,50C11.28,50.01,0,38.73,0,25.04,0,11.22,11.23-.02,25.02,0c13.81,.01,24.99,11.22,24.98,25.06,0,13.73-11.25,24.94-25.04,24.94ZM43.19,15.28c0-.47-.31-.77-.6-1.05-.76-.75-1.59-1.45-2.31-2.24-.46-.5-.71-.4-1.14,.03-6.02,6.05-12.07,12.08-18.09,18.13-.4,.4-.61,.43-1.01,0-.98-1.05-2.03-2.04-3.04-3.06-1.72-1.73-3.42-3.48-5.16-5.19-.99-.97-1.46-.96-2.39,0-.75,.76-1.45,1.59-2.22,2.33-.37,.36-.36,.55,0,.91,4.25,4.27,8.49,8.55,12.72,12.84,.42,.43,.65,.45,1.08,0,4.68-4.71,9.37-9.39,14.07-14.08,2.48-2.48,4.97-4.96,7.45-7.45,.33-.33,.64-.68,.65-1.18Z"/>
  <path class="cls-2" d="M43.19,15.28c-.01,.51-.32,.85-.65,1.18-2.48,2.49-4.97,4.97-7.45,7.45-4.69,4.69-9.39,9.38-14.07,14.08-.43,.44-.66,.42-1.08,0-4.22-4.3-8.46-8.58-12.72-12.84-.36-.36-.37-.55,0-.91,.77-.74,1.47-1.56,2.22-2.33,.94-.95,1.41-.97,2.39,0,1.74,1.71,3.44,3.46,5.16,5.19,1.01,1.02,2.05,2.02,3.04,3.06,.4,.42,.61,.39,1.01,0,6.02-6.05,12.07-12.08,18.09-18.13,.43-.43,.68-.54,1.14-.03,.73,.79,1.55,1.48,2.31,2.24,.29,.29,.6,.59,.6,1.05Z"/>
</svg>