<?xml version="1.0" encoding="UTF-8"?>
<svg id="Layer_1" data-name="Layer 1" xmlns="http://www.w3.org/2000/svg" viewBox="0 0 72.18 32.12">
  <defs>
    <style>
      .cls-1 {
        fill: #231f20;
      }
    </style>
  </defs>
  <path class="cls-1" d="m7.93,30.11c0,.1,0,.19-.02.28-.01.09-.04.17-.07.25-.03.08-.08.15-.13.21-.05.06-.12.11-.21.14-.08.04-.18.05-.29.05s-.2-.02-.28-.05c-.08-.04-.15-.08-.2-.14-.05-.06-.1-.13-.13-.21-.04-.08-.06-.17-.08-.26-.01-.09-.02-.18-.02-.28v-1.33h-.42v1.33c0,.14.01.27.04.4.02.12.07.24.12.36.06.11.13.21.21.29.09.08.19.15.32.19.13.05.28.07.44.07.2,0,.37-.03.52-.1.15-.07.27-.16.36-.29.09-.12.15-.26.2-.42.04-.16.07-.32.07-.51v-1.33h-.42v1.33Zm3.54.57l-1.49-1.9h-.34v2.63h.41v-1.86l1.47,1.86h.36v-2.63h-.42v1.9Zm1.75.73h.41v-2.63h-.41v2.63Zm2.51-2.63l-1.03,2.63h.44l.28-.71h1.02l.28.71h.44l-1.02-2.63h-.39Zm-.24,1.61l.44-1.15.42,1.15h-.86Zm.02-1.96s.01-.03.02-.06c.01-.02.03-.04.06-.06.03-.02.06-.02.1-.02.04,0,.09.01.14.04.05.03.1.05.16.08.06.03.12.04.18.04s.12-.01.17-.04c.05-.03.09-.06.12-.09.03-.04.06-.08.08-.12.02-.04.04-.08.04-.11,0-.03.01-.05.01-.07h-.23s0,.01,0,.03c0,.01,0,.03-.02.04,0,.02-.02.04-.03.05-.01.02-.03.03-.06.04-.03.01-.06.02-.09.02-.05,0-.1-.01-.15-.04-.05-.03-.1-.05-.16-.08-.06-.03-.11-.04-.18-.04-.06,0-.11.01-.16.04-.05.02-.09.06-.11.09-.03.04-.05.07-.07.12-.02.04-.03.08-.04.11,0,.03-.01.06-.01.07h.23s0-.02,0-.04m4.62.75c-.11-.13-.24-.23-.4-.3-.16-.08-.33-.12-.51-.12s-.34.04-.5.11c-.16.07-.29.17-.4.29-.11.12-.2.26-.26.43-.06.16-.1.33-.1.5,0,.13.02.27.06.4.04.13.09.25.17.36.07.11.16.21.26.3.1.09.22.15.35.2.13.05.27.07.42.07.18,0,.34-.04.5-.11.16-.07.29-.17.4-.29.11-.12.2-.26.26-.43.06-.16.1-.33.1-.5s-.03-.33-.09-.49c-.06-.16-.15-.3-.25-.43m-.14,1.26c-.04.11-.09.22-.16.31-.07.09-.16.16-.26.22-.11.06-.23.08-.35.08-.17,0-.31-.05-.45-.14-.13-.09-.23-.21-.3-.35-.07-.14-.1-.3-.1-.47,0-.12.02-.24.06-.35.04-.11.09-.22.16-.31.07-.09.16-.16.27-.22.11-.05.23-.08.35-.08s.24.03.34.08c.11.05.19.12.26.21.07.09.13.19.17.31.04.12.06.24.06.36s-.02.24-.06.35m3.72-.2h1.17v-.35h-1.17v-.75h1.36v-.37h-1.77v2.63h1.8v-.37h-1.39v-.8Zm6.03-.12c.09-.14.14-.31.14-.48,0-.1-.02-.21-.06-.31-.04-.1-.1-.19-.17-.27-.07-.08-.16-.15-.26-.2-.1-.05-.21-.07-.33-.07h-1.15v2.63h.41v-.92h.61l.57.92h.47l-.62-1c.15-.05.28-.15.37-.29m-.68,0h-.73v-.98h.7c.11,0,.21.05.29.14.08.1.13.21.13.34s-.04.25-.11.35c-.07.1-.17.14-.28.14m2.46.11h1.17v-.35h-1.17v-.75h1.36v-.37h-1.77v2.63h1.8v-.37h-1.39v-.8Zm4.13.63c-.08.07-.16.11-.25.14-.09.03-.17.04-.27.04-.16,0-.3-.04-.44-.13-.13-.09-.23-.21-.3-.36-.07-.15-.11-.31-.11-.48,0-.09.01-.18.03-.28.02-.09.06-.18.1-.26.05-.08.1-.15.17-.22.07-.06.14-.11.24-.15.09-.04.19-.06.3-.06.07,0,.13,0,.19.02.06.01.13.04.19.07.06.03.12.07.17.13.05.06.1.12.13.2l.33-.22c-.09-.17-.22-.31-.39-.42-.17-.1-.38-.16-.61-.16-.16,0-.3.03-.44.08-.14.05-.26.12-.36.2-.1.09-.19.18-.26.3-.07.11-.13.23-.16.36-.04.13-.05.25-.05.38,0,.17.03.33.09.49.06.16.15.31.26.44.11.13.24.23.4.31.16.08.33.12.51.12.14,0,.28-.02.42-.07.14-.05.27-.12.39-.21.12-.1.2-.21.25-.33l-.35-.2c-.04.1-.11.18-.19.25m3.63-1.69c-.11-.13-.24-.23-.4-.3-.16-.08-.33-.12-.51-.12s-.34.04-.5.11c-.16.07-.29.17-.4.29-.11.12-.2.26-.26.43-.06.16-.1.33-.1.5,0,.13.02.27.06.4.04.13.09.25.17.36.07.11.16.21.26.3.1.09.22.15.35.2.13.05.27.07.42.07.18,0,.34-.04.5-.11.16-.07.29-.17.4-.29.11-.12.2-.26.26-.43.06-.16.1-.33.1-.5s-.03-.33-.09-.49c-.06-.16-.15-.3-.25-.43m-.14,1.26c-.04.11-.09.22-.16.31-.07.09-.16.16-.26.22-.11.06-.23.08-.35.08-.17,0-.31-.05-.45-.14-.13-.09-.23-.21-.3-.35-.07-.14-.1-.3-.1-.47,0-.12.02-.24.06-.35.04-.11.09-.22.16-.31.07-.09.16-.16.27-.22.11-.05.23-.08.35-.08s.24.03.34.08c.11.05.19.12.26.21.07.09.13.19.17.31.04.12.06.24.06.36s-.02.24-.06.35m3.49.24l-1.49-1.9h-.34v2.63h.41v-1.86l1.47,1.86h.36v-2.63h-.42v1.9Zm3.45-.44c-.05-.05-.11-.1-.18-.14-.08-.04-.16-.08-.24-.1-.08-.03-.18-.05-.3-.08-.07-.02-.13-.03-.18-.04-.04-.01-.09-.03-.14-.04-.05-.02-.09-.03-.12-.05-.03-.01-.06-.03-.09-.05s-.05-.04-.07-.06c-.02-.02-.03-.05-.04-.08,0-.03-.01-.06-.01-.1,0-.12.04-.21.13-.27.09-.06.21-.09.38-.09.14,0,.29.03.42.09.14.06.23.12.29.18l.19-.34c-.27-.2-.57-.3-.89-.3-.14,0-.26.02-.38.05-.12.03-.22.09-.3.15-.09.07-.15.15-.2.25-.05.1-.07.22-.07.34,0,.1.02.19.05.26.03.07.08.14.15.19.07.05.15.1.24.14.09.04.21.07.34.11.09.02.16.04.21.06.05.01.11.03.17.05.06.02.11.04.15.06.03.02.07.04.1.07.03.03.06.06.07.1.01.03.02.07.02.12,0,.11-.04.19-.13.25-.09.06-.22.09-.38.09-.18,0-.36-.04-.53-.11-.17-.07-.3-.15-.37-.23l-.19.36c.15.11.32.2.5.26.19.06.38.09.58.09.11,0,.21,0,.3-.03.09-.02.18-.05.26-.09.08-.04.15-.09.21-.15.06-.06.1-.13.14-.21.03-.08.05-.18.05-.28,0-.09-.01-.18-.04-.25-.03-.07-.06-.14-.11-.19m1.07-1.1h.88v2.26h.42v-2.26h.87v-.37h-2.17v.37Zm5.08.97c.09-.14.14-.31.14-.48,0-.1-.02-.21-.06-.31-.04-.1-.1-.19-.17-.27-.07-.08-.16-.15-.26-.2-.1-.05-.21-.07-.33-.07h-1.15v2.63h.41v-.92h.61l.57.92h.47l-.62-1c.15-.05.28-.15.37-.29m-.68,0h-.73v-.98h.7c.11,0,.21.05.29.14.08.1.13.21.13.34s-.04.25-.11.35c-.07.1-.17.14-.28.14m3.86-.01c0,.1,0,.19-.02.28s-.04.17-.07.25c-.04.08-.08.15-.13.21-.05.06-.12.11-.21.14-.08.04-.18.05-.29.05s-.2-.02-.28-.05c-.08-.04-.15-.08-.2-.14-.05-.06-.1-.13-.13-.21-.04-.08-.06-.17-.08-.26-.01-.09-.02-.18-.02-.28v-1.33h-.42v1.33c0,.14.01.27.04.4.02.12.07.24.12.36.06.11.13.21.21.29.09.08.19.15.32.19.13.05.28.07.44.07.2,0,.37-.03.52-.1.15-.07.27-.16.36-.29.09-.12.15-.26.2-.42.04-.16.07-.32.07-.51v-1.33h-.42v1.33Zm3.33.76c-.08.07-.16.11-.25.14-.09.03-.17.04-.27.04-.16,0-.3-.04-.44-.13-.13-.09-.23-.21-.3-.36-.07-.15-.11-.31-.11-.48,0-.09.01-.18.03-.28.02-.09.06-.18.1-.26.05-.08.1-.15.17-.22.07-.06.14-.11.24-.15.09-.04.19-.06.3-.06.07,0,.13,0,.19.02s.13.04.19.07c.06.03.12.07.17.13.05.06.1.12.13.2l.33-.22c-.09-.17-.22-.31-.39-.42s-.38-.16-.61-.16c-.16,0-.3.03-.44.08-.14.05-.26.12-.36.2-.1.09-.19.18-.26.3-.07.11-.13.23-.16.36-.04.13-.05.25-.05.38,0,.16.03.32.09.47.06.16.14.3.24.42.1.13.22.23.37.31.15.08.3.13.47.14.13.09.2.18.2.28,0,.06-.02.1-.06.13-.04.03-.09.04-.16.04-.08,0-.17-.03-.26-.08l-.1.22c.14.07.28.11.44.11.13,0,.23-.03.3-.09.07-.06.11-.15.11-.25,0-.13-.06-.25-.19-.36.2-.03.38-.09.54-.2.17-.11.28-.24.35-.4l-.35-.2c-.04.1-.11.18-.19.25m2.38-2.09l-1.03,2.63h.44l.28-.71h1.02l.28.71h.44l-1.02-2.63h-.39Zm-.24,1.61l.44-1.15.42,1.15h-.86Zm.02-1.96s.01-.03.02-.06c.01-.02.03-.04.06-.06.03-.02.06-.02.1-.02.04,0,.09.01.14.04.05.03.1.05.16.08.06.03.12.04.18.04s.12-.01.17-.04c.05-.03.09-.06.12-.09.03-.04.06-.08.08-.12.02-.04.04-.08.04-.11,0-.03.01-.05.01-.07h-.23s0,.01,0,.03c0,.01,0,.03-.02.04,0,.02-.02.04-.03.05-.01.02-.03.03-.06.04-.03.01-.06.02-.09.02-.05,0-.1-.01-.15-.04-.05-.03-.1-.05-.16-.08-.06-.03-.11-.04-.18-.04-.06,0-.11.01-.16.04-.05.02-.09.06-.11.09-.03.04-.05.07-.07.12-.02.04-.03.08-.04.11,0,.03-.01.06-.01.07h.23s0-.02,0-.04m4.87,1.18c-.06-.16-.15-.3-.25-.43-.11-.13-.24-.23-.4-.3-.16-.08-.33-.12-.51-.12s-.35.04-.5.11c-.16.07-.29.17-.4.29-.11.12-.2.26-.26.43-.06.16-.1.33-.1.5,0,.13.02.27.06.4.04.13.1.25.17.36.07.11.16.21.26.3.1.09.22.15.35.2.13.05.27.07.42.07.18,0,.34-.04.5-.11.16-.07.29-.17.4-.29.11-.12.2-.26.26-.43.06-.16.1-.33.1-.5s-.03-.33-.09-.49m-.39.83c-.04.11-.09.22-.16.31-.07.09-.16.16-.26.22-.11.06-.23.08-.35.08-.17,0-.31-.05-.45-.14-.13-.09-.23-.21-.3-.35-.07-.14-.1-.3-.1-.47,0-.12.02-.24.06-.35.04-.11.09-.22.16-.31.07-.09.16-.16.27-.22.11-.05.23-.08.35-.08s.24.03.34.08c.11.05.19.12.26.21.07.09.13.19.17.31.04.12.06.24.06.36s-.02.24-.06.35"/>
  <path class="cls-1" d="m7.54,2.24h.9c-.08.22-.31.39-.66.39-.51,0-.86-.36-.86-.87s.35-.89.84-.89c.32,0,.59.15.73.42l.77-.46c-.31-.52-.88-.83-1.49-.83-.98,0-1.75.78-1.75,1.76s.77,1.75,1.76,1.75c.93,0,1.63-.68,1.63-1.72v-.26h-1.87v.71ZM12.41,0c-.98,0-1.76.78-1.76,1.75s.78,1.75,1.76,1.75,1.75-.78,1.75-1.75-.78-1.75-1.75-1.75m0,2.58c-.45,0-.79-.35-.79-.83s.34-.83.79-.83.78.35.78.83-.34.83-.78.83m4.35-.44L15.98.08h-.97l1.3,3.35h.9L18.52.08h-.97l-.79,2.06Zm2.94,1.29h2.4v-.82h-1.49v-.5h.99v-.72h-.99v-.5h1.49V.08h-2.4v3.35Zm6.57-2.26c0-.62-.5-1.09-1.16-1.09h-1.62v3.35h.89v-1.16h.38l.67,1.16h1l-.74-1.29c.35-.19.59-.54.59-.97m-1.26.34h-.63v-.63h.63c.22,0,.34.15.34.32s-.13.31-.34.31m4.77.34l-1.35-1.77h-.76v3.35h.89v-1.76l1.35,1.76h.76V.08h-.89v1.77Zm3.95-1.85c-.98,0-1.76.78-1.76,1.75s.78,1.75,1.76,1.75,1.75-.78,1.75-1.75-.78-1.75-1.75-1.75m0,2.58c-.45,0-.79-.35-.79-.83s.34-.83.79-.83.78.35.78.83-.34.83-.78.83m5.27.85h.91v-1.22h.99v-.76h-.99v-.57h1.49V.08h-2.4v3.35Zm3.75,0h2.4v-.82h-1.49v-.5h.99v-.72h-.99v-.5h1.49V.08h-2.4v3.35ZM47.91.08h-1.36v3.35h1.36c1.02,0,1.79-.71,1.79-1.68s-.77-1.68-1.79-1.68m-.04,2.48h-.41V.95h.41c.53,0,.9.32.9.8s-.36.8-.9.8m3.13.87h2.4v-.82h-1.49v-.5h.99v-.72h-.99v-.5h1.49V.08h-2.4v3.35Zm6.57-2.26c0-.62-.5-1.09-1.16-1.09h-1.62v3.35h.89v-1.16h.38l.67,1.16h1l-.74-1.29c.35-.19.59-.54.59-.97m-1.26.34h-.63v-.63h.63c.22,0,.34.15.34.32s-.13.31-.34.31m3.8-1.43l-1.4,3.35h.94l.23-.58h1.33l.24.58h.94l-1.41-3.35h-.86Zm.1,1.98l.33-.82.34.82h-.67Zm4.3.51V.08h-.95v3.35h2.36v-.86h-1.41Z"/>
  <path class="cls-1" d="m39.45,19.53l2.99,5.02h2.47v-9.49h-5.45s0,4.47,0,4.47Zm7.63-5.89h-1.86v10.92h1.86c3.01,0,5.46-2.45,5.46-5.46s-2.45-5.46-5.46-5.46m-3.86,1.11h1.69v-7.53h-1.69c-2.08,0-3.76,1.69-3.76,3.76s1.69,3.76,3.76,3.76M13.39,7.59v9.97h6.48l-6.48-9.97Zm46.59,11.03h5.79V7.22h-5.79v11.41Zm-8.47-11.41h-6.29v6.1h6.29v-6.1Zm14.57,17.33h5.79v-5.61h-5.79v5.61Zm-6.1,0h5.79v-5.61h-5.79v5.61Zm-7.13,0h5.79V7.22h-5.79v17.33Zm-13.4,0h2.62l-2.62-4.41v4.41ZM10.74,10.6c0-1.87-1.52-3.38-3.38-3.38h-1.26v6.77h1.26c1.87,0,3.38-1.52,3.38-3.38M0,13.98h5.79v-6.77H0v6.77ZM0,24.55h5.79v-10.25H0v10.25Zm7.95-10.25h-1.85v10.25h1.85c2.83,0,5.13-2.3,5.13-5.13s-2.3-5.13-5.13-5.13m15.01,8.02l-1.33,2.23h2.78s-1.45-2.23-1.45-2.23Zm.18-.3l1.65,2.53h.48c.04-1.72.74-3.33,1.97-4.54,1.24-1.22,2.88-1.89,4.62-1.89s3.38.67,4.62,1.89c1.23,1.21,1.93,2.82,1.97,4.54h.69v-4.94l-7.28-12.25-8.71,14.65Zm2.19-9.63c0-2.85-2.32-5.17-5.17-5.17h-6.64l6.72,10.34c2.81-.05,5.09-2.36,5.09-5.17m6.53,6.04c-1.65,0-3.22.64-4.4,1.8-1.17,1.15-1.84,2.69-1.88,4.32h12.56c-.04-1.64-.71-3.17-1.88-4.32-1.18-1.16-2.74-1.8-4.4-1.8m-11.78-.55h-6.68v6.67h7.88l1.5-2.52-2.7-4.15Z"/>
</svg>