<?xml version="1.0" encoding="UTF-8"?>
<svg id="Layer_1" data-name="Layer 1" xmlns="http://www.w3.org/2000/svg" viewBox="0 0 29.98 34.97">
  <defs>
    <style>
      .cls-1 {
        fill-rule: evenodd;
      }

      .cls-1, .cls-2 {
        fill: #231f20;
      }
    </style>
  </defs>
  <path class="cls-1" d="m24.31,6.46l.22.06.21.09.19.11.17.14.14.16.09.18.06.18v.2s-.03.16-.03.16l-.09.15-.14.13-.16.11-.2.09-.21.07-.23.04h-.25s-.23-.03-.23-.03l-.21-.08-.2-.11-.16-.14-.14-.16-.09-.18-.04-.18v-.19s.06-.18.06-.18l.09-.16.13-.13.15-.12.19-.1.21-.07.23-.03h.24ZM13.65,1.14l.17.03.17.05.15.05.15.07.15.08.13.09.13.1.11.1.1.12.09.12.07.13.06.13.04.13.03.13v.14s0,.14,0,.14l-.03.13-.04.13-.06.12-.07.12-.09.11-.1.1-.11.09-.13.08-.14.08-.15.07-.15.05-.16.04-.17.03-.18.02h-.36s-.17-.03-.17-.03l-.16-.04-.15-.05-.15-.07-.14-.08-.14-.08-.13-.09-.11-.1-.09-.11-.09-.11-.07-.13-.06-.13-.04-.13-.02-.13v-.13s0-.14,0-.14l.02-.13.04-.13.05-.13.07-.12.09-.11.09-.1.11-.09.13-.08.13-.08.15-.07.16-.05.16-.05.17-.03.18-.03.19-.02h.19ZM3.78,6.46l.23.06.21.09.19.11.15.14.12.16.09.18.04.18v.2l-.04.16-.09.15-.12.13-.16.11-.19.09-.21.07-.23.04h-.24s-.23-.03-.23-.03l-.21-.08-.19-.11-.16-.14-.13-.16-.09-.18-.05-.18v-.19l.05-.18.09-.16.13-.13.15-.12.19-.1.21-.07.23-.03h.25Zm20.2,8.72l.03-.29.07-.29.09-.31.11-.31.13-.3.15-.3.16-.28.17-.25.17-.23.19-.19.18-.15.18-.1.17-.05.17.02.15.08.14.15-.03.29-.04.29-.05.29-.06.29-.07.28-.07.28-.09.27-.09.27-.09.26-.1.25-.11.24-.12.24-.14.23-.14.23-.15.21-.15.2-.09-.12-.11-.16-.12-.18-.12-.19-.12-.19-.09-.18-.07-.15-.04-.12Zm-2.18,6.44v-.18s.03-.19.03-.19l.02-.18.02-.18.02-.18.03-.18.03-.18.03-.18.03-.18.03-.18.03-.18.03-.17.04-.18.03-.17.04-.17.05-.17.04-.17.05-.17.04-.17.05-.16.05-.17.06-.17.05-.16.06-.16.06-.17.06-.16.06-.17.06-.16.07-.16.06-.16.07-.17.07-.16.09.15.09.16.09.16.09.17.11.16.13.15.14.16.17.14.09-.02.09-.03.09-.02.09-.02.09-.03.08-.02.09-.03.09-.02.08-.03.09-.02.09-.03.09-.03.08-.02.09-.03.09-.02.09-.03.03-.25.05-.23.06-.23.07-.22.08-.22.09-.22.09-.22.1-.23.09-.23.11-.24.1-.26.1-.29.1-.3.1-.33.09-.35.09-.39.12.23.11.23.1.24.1.24.09.24.09.25.09.25.09.26.08.26.08.26.07.27.07.27.07.27.06.28.06.28.05.28.05.28.05.28.05.28.04.28.04.29.04.28.03.28.04.29.03.28.03.28.03.28.03.27.03.28.03.27.03.27.03.27.05.3.14.21.2.13.22.05.21-.03.2-.09.14-.16.05-.21-.03-.31-.04-.32-.04-.31-.04-.31-.04-.32-.05-.31-.05-.31-.06-.32-.06-.31-.06-.31-.07-.31-.06-.31-.08-.31-.07-.31-.08-.31-.09-.3-.09-.31-.09-.3-.09-.3-.09-.3-.1-.3-.09-.29-.1-.3-.11-.29-.11-.29-.11-.29-.12-.29-.12-.29-.12-.29-.13-.29-.13-.28-.14-.28v-.31l.02-.32.02-.34.03-.34.03-.35.04-.34.04-.35.04-.34.05-.34.05-.34.05-.32.06-.32.06-.29.06-.28.07-.27.06-.23.02-.08v-.08s.02-.08.02-.08v-.23s.02-.07.02-.07v-.06s-.61,1.91-.61,1.91l-.16-.18.16-.5.28-1.78-.06.18-.06.18-.05.18-.05.18-.05.18-.05.18-.05.18-.05.18-.05.19-.04.18-.04.18-.05.18-.04.19-.04.18-.04.18-.03.19-.04.18-.04.19-.03.18-.04.19-.03.19-.04.18-.03.19-.03.19-.04.18-.03.19-.03.19-.03.19-.03.19-.04.19-.03.19-.03.19-.17-.09-.18-.07-.18-.03h-.17s-.18.02-.18.02l-.18.04-.19.07-.19.09-.19.11-.19.13-.21.15-.2.16-.21.18-.21.19-.22.21-.22.22-.07-.19-.07-.18-.07-.18-.06-.18-.05-.18-.06-.17-.06-.18-.05-.18-.06-.18-.05-.19-.06-.19-.07-.2-.06-.22-.07-.23-.08-.23-.08-.26-.14-.13-.14-.08-.15-.03-.14.02-.12.05-.11.08-.09.11-.06.13.04.29.05.31.05.32.07.33.07.33.08.34.09.33.09.33.09.32.09.31.09.29.09.29.09.27.09.24.09.22.09.2-.09.22-.09.23-.1.22-.09.21-.09.22-.09.22-.09.21-.09.22-.09.21-.09.21-.09.21-.09.22-.09.21-.09.21-.08.21-.08.21-.06-.29-.07-.29-.06-.29-.07-.29-.07-.29-.07-.29-.08-.29-.07-.29-.08-.29-.09-.29-.08-.29-.09-.29-.09-.29-.09-.29-.09-.28-.09-.29-.09-.29-.09-.28-.09-.28-.1-.29-.1-.28-.1-.28-.11-.27-.1-.28-.11-.27-.11-.28-.12-.27-.12-.27-.11-.26-.13-.27-.12-.26-.13-.26v-.91s.02-.24.02-.24l.02-.24v-.25s.03-.25.03-.25l.03-.26.02-.26.03-.26.03-.27.03-.26.03-.27.03-.26.03-.26.03-.26.04-.26.03-.25.03-.25.04-.25.04-.24.03-.23.04-.23.04-.23.04-.22.04-.21.03-.2.04-.19.04-.18.03-.18.04-.16.04-.17.03-.14v-.13s0-.12,0-.12v-.09s0-.09,0-.09v-.08l.03-.07-.9,2.74-.18-.28.1-.76.54-2.6-.09.28-.09.28-.09.27-.09.28-.08.28-.08.28-.08.28-.07.28-.07.28-.08.28-.07.28-.06.29-.07.28-.06.28-.06.29-.06.28-.06.28-.06.29-.06.28-.06.29-.05.29-.06.28-.05.29-.06.29-.05.29-.05.29-.05.29-.06.29-.05.29-.05.29-.06.29-.05.29-.28-.14-.27-.09-.27-.04h-.27s-.27.03-.27.03l-.27.08-.27.11-.27.14-.28.18-.28.2-.29.23-.31.25-.31.27-.33.29-.34.3-.35.32-.1-.29-.09-.28-.09-.27-.09-.27-.08-.26-.09-.26-.09-.27-.08-.27-.09-.27-.09-.29-.09-.29-.09-.31-.1-.33-.11-.34-.11-.37-.13-.39-.17-.19-.2-.1-.2-.03-.2.03-.19.08-.17.14-.13.17-.09.2.03.22.03.23.03.23.04.23.03.23.04.23.05.24.04.24.05.23.05.24.06.24.05.24.06.24.06.24.07.24.06.23.07.23.06.23.07.23.07.23.07.23.07.22.08.21.07.2.08.2.07.19.08.19.07.18.08.18.07.16.08.16.07.14-.15.33-.15.34-.14.33-.15.32-.14.33-.14.33-.14.32-.13.32-.13.32-.13.33-.13.32-.12.32-.12.32-.12.32-.11.33-.11.32-.04-.23-.04-.22-.04-.23-.04-.23-.04-.22-.05-.23-.05-.22-.05-.22-.05-.22-.06-.22-.06-.22-.05-.22-.07-.22-.06-.22-.06-.22-.07-.21-.07-.22-.07-.21-.08-.21-.07-.22-.08-.21-.08-.21-.09-.21-.08-.21-.09-.2-.09-.21-.09-.21-.09-.2-.09-.21-.09-.2-.1-.2-.09-.2v-.31l.02-.33.02-.33.03-.34.03-.35.04-.35.03-.35.04-.35.05-.34.05-.34.05-.32.06-.32.05-.29.06-.28.05-.25.06-.23.03-.08.02-.08v-.08s.02-.08.02-.08v-.08s0-.07,0-.07v-.07s0-.06,0-.06l-.58,1.91-.15-.18.09-.5.39-1.78-.07.18-.06.18-.07.18-.06.18-.05.18-.06.18-.05.18-.05.18-.05.19-.05.18-.05.18-.04.18-.04.19-.04.18-.04.18-.04.19-.04.18-.03.19-.04.18-.03.19-.04.19-.03.18-.04.19-.03.19-.03.18-.03.19-.04.19-.03.19-.04.19-.03.19-.03.19-.04.19-.19-.09-.18-.07-.18-.03h-.18s-.17.02-.17.02l-.18.04-.18.07-.18.09-.19.11-.19.13-.19.15-.2.16-.2.18-.21.19-.21.21-.22.22-.08-.19-.08-.18-.07-.18-.07-.18-.06-.18-.07-.17-.06-.18-.05-.18-.06-.18-.06-.19-.07-.19-.06-.2-.07-.22-.07-.23-.08-.23-.08-.26-.12-.13-.14-.08-.13-.03-.13.02-.12.05-.11.08-.09.11-.07.13.03.29.05.31.05.32.06.33.08.33.08.34.09.33.09.33.09.32.09.31.09.29.1.29.1.27.09.24.1.22.09.2-.09.21-.09.2-.09.2-.09.21-.09.2-.09.19-.09.2-.09.2-.09.2-.08.19-.09.2-.08.2-.08.19-.08.2-.07.2-.07.2-.07.2-.07.2-.06.21-.07.2-.05.21-.06.21-.04.21-.05.21-.04.22-.04.22-.03.23-.03.22-.03.23-.03.23-.02.23-.02.23.04.29.08.23.12.16.15.1.18.03.2-.06.22-.14.23-.23v-.19s.03-.19.03-.19v-.19s.03-.19.03-.19l.03-.19.03-.18.03-.18.03-.18.03-.18.03-.18.03-.18.04-.18.03-.18.04-.18.04-.18.05-.18.04-.18.05-.18.05-.17.05-.18.05-.18.05-.17.06-.18.06-.17.06-.18.06-.17.06-.17.06-.18.06-.17.07-.17.06-.17.07-.17.08.15.09.16.09.16.1.17.1.16.12.15.12.16.14.14.11-.02.1-.03.1-.02.09-.02.09-.03.09-.02.09-.03.09-.02.09-.03.09-.02.09-.03.09-.03.09-.02.09-.03.09-.02.1-.03.03-.25.03-.23.04-.23.06-.22.07-.22.08-.22.09-.22.09-.23.09-.23.09-.24.1-.26.1-.29.09-.3.1-.33.09-.35.09-.39.12.23.12.23.11.24.1.24.1.24.09.25.09.25.09.26.09.26.08.26.07.27.08.27.06.27.06.28.06.28.06.28.05.28.04.28.05.28.04.28.04.29.03.28.04.28.03.29.03.28.03.28.03.28.03.27.03.28.03.27.03.27.03.27v.16s.02.04.02.04l.02.03.02.03.03.03-.02.12-.03.13-.02.12-.02.12-.02.12-.02.11-.02.12v.12s-.03.12-.03.12v.12s-.02.12-.02.12v.12s-.02.13-.02.13v.13s0,.13,0,.13v.13l.02.22.04.2.05.18.08.16.09.13.1.11.11.08.13.06.14.03h.14s.15-.02.15-.02l.15-.06.15-.08.15-.12.15-.14.15-.18.02-.3.02-.29.02-.29.03-.29.03-.29.03-.29.03-.29.04-.28.04-.28.04-.28.05-.28.06-.27.06-.27.06-.27.06-.27.07-.26.07-.26.08-.26.07-.26.08-.26.09-.25.08-.26.09-.25.09-.25.09-.25.09-.25.09-.24.09-.25.09-.25.1-.24.09-.25.1-.24.06.11.07.11.06.11.07.12.07.12.07.12.07.13.08.12.08.12.09.13.09.12.09.12.09.12.11.11.11.11.12.11.15-.03.15-.03.14-.03.15-.03.14-.03.14-.03.14-.03.14-.03.14-.03.14-.03.13-.03.14-.03.13-.03.14-.03.13-.03.14-.03.02-.18.02-.18.03-.18.03-.17.03-.18.04-.17.04-.16.05-.17.05-.16.05-.17.06-.16.06-.17.06-.16.07-.17.07-.18.07-.17.07-.18.08-.18.08-.18.07-.19.08-.2.08-.2.08-.21.08-.22.08-.23.08-.23.07-.24.08-.26.07-.27.07-.28.07-.29.07-.3.18.35.16.35.16.37.15.37.15.37.14.39.13.39.13.39.12.39.11.4.1.4.1.4.09.41.09.41.09.41.09.42.08.42.07.41.07.42.07.42.06.42.06.42.06.42.05.42.06.42.04.41.05.42.04.41.05.4.04.41.04.4.04.39v.24s.06.2.06.2l.09.18.11.13.14.12.16.08.17.05.17.02h.18l.17-.03.16-.07.15-.08.12-.11.09-.13.06-.16.03-.18-.02-.13-.02-.13-.03-.13-.02-.13-.02-.13-.02-.13-.03-.13-.02-.13-.02-.13-.02-.13-.03-.13-.02-.13-.02-.13-.02-.13-.03-.13-.02-.13ZM3.41,15.19l.04-.29.07-.29.09-.31.12-.31.13-.3.15-.3.16-.28.18-.25.18-.23.19-.19.19-.15.19-.1.18-.05.18.02.16.08.15.15-.04.29-.05.29-.06.29-.07.29-.07.28-.09.28-.09.27-.09.27-.1.26-.11.25-.12.24-.12.24-.14.23-.14.23-.14.21-.15.2-.09-.12-.11-.16-.13-.18-.12-.19-.12-.19-.1-.18-.07-.15-.04-.12Zm9.69-1.12l.03-.2.04-.22.04-.22.06-.22.07-.23.08-.23.09-.23.09-.23.09-.23.11-.23.1-.22.12-.22.12-.21.12-.2.13-.2.13-.18.14-.17.13-.17.14-.14.14-.13.14-.12.14-.1.14-.08.14-.06.14-.04.13-.03h.13l.13.03.12.05.11.08.12.11.1.13-.03.22-.03.21-.04.21-.03.22-.04.21-.04.22-.04.21-.05.21-.05.21-.05.2-.05.21-.06.2-.06.21-.06.2-.07.19-.07.2-.07.19-.08.19-.08.18-.08.18-.09.18-.09.18-.09.18-.09.17-.09.18-.09.16-.1.17-.1.15-.11.16-.1.14-.11.14-.12.14-.07-.06-.08-.08-.09-.09-.09-.11-.09-.12-.09-.13-.09-.14-.09-.14-.09-.14-.09-.15-.08-.14-.08-.15-.06-.13-.05-.13-.03-.12-.02-.11Z"/>
  <polygon class="cls-2" points="5.42 34.85 5.42 28.12 9.23 28.12 9.23 29.3 6.93 29.3 6.93 30.82 9.04 30.82 9.04 31.98 6.93 31.98 6.93 33.65 9.27 33.65 9.27 34.85 5.42 34.85"/>
  <polygon class="cls-2" points="10.28 34.85 10.28 28.12 11.69 28.12 13.51 31.8 13.51 28.12 14.92 28.12 14.92 34.85 13.62 34.85 11.7 31.01 11.7 34.85 10.28 34.85"/>
  <path class="cls-2" d="m15.86,34.39v-1.48c.28.25.54.44.77.56.23.13.44.19.62.19s.31-.05.42-.15c.1-.1.16-.24.16-.42,0-.29-.22-.65-.65-1.1l-.07-.07c-.54-.56-.88-.99-1.04-1.28-.16-.3-.23-.61-.23-.94,0-.51.17-.92.52-1.23.35-.31.81-.46,1.39-.46.24,0,.48.03.72.1.23.06.47.16.7.3v1.26c-.28-.16-.53-.27-.76-.35-.23-.08-.44-.12-.6-.12s-.29.04-.37.13c-.09.09-.13.2-.13.35,0,.18.22.49.65.94.07.07.12.12.16.16.55.57.9,1.01,1.06,1.32.16.31.23.63.23.98,0,.56-.18,1.02-.54,1.37-.36.35-.82.53-1.39.53-.28,0-.54-.05-.8-.14-.26-.1-.52-.24-.8-.44"/>
  <path class="cls-2" d="m20.35,34.85v-6.73h1.93c.76,0,1.34.17,1.72.51.39.34.58.84.58,1.51s-.18,1.13-.55,1.45c-.37.32-.93.48-1.67.48h-.51v2.78h-1.51Zm1.51-3.92h.29c.35,0,.6-.06.74-.18.14-.12.21-.33.21-.62s-.08-.5-.23-.63c-.15-.14-.39-.2-.71-.2h-.3v1.64Z"/>
</svg>