<?xml version="1.0" encoding="UTF-8"?>
<svg id="Layer_1" data-name="Layer 1" xmlns="http://www.w3.org/2000/svg" viewBox="0 0 25.46 34.97">
  <defs>
    <style>
      .cls-1 {
        fill-rule: evenodd;
      }

      .cls-1, .cls-2 {
        fill: #1f1a17;
      }
    </style>
  </defs>
  <polygon class="cls-1" points="0 34.88 .93 34.88 .93 33.03 2.67 33.03 2.67 32.31 .93 32.31 .93 31.26 2.8 31.26 2.8 30.54 0 30.54 0 34.88"/>
  <rect class="cls-2" x="3.3" y="30.54" width=".93" height="4.34"/>
  <path class="cls-1" d="m6.93,30.45c-1.44,0-2.08.98-2.08,2.26s.65,2.26,2.08,2.26,2.08-.98,2.08-2.26-.65-2.26-2.08-2.26Zm0,3.84c-.92,0-1.09-.84-1.09-1.59s.17-1.59,1.09-1.59,1.09.84,1.09,1.59-.17,1.59-1.09,1.59Z"/>
  <path class="cls-1" d="m11.29,31.12c.56,0,.84.37.83.82h.99c-.04-1.09-.82-1.5-1.82-1.5-1.26,0-1.82.99-1.82,2.26s.56,2.26,1.82,2.26c1,0,1.78-.41,1.82-1.5h-.99c0,.46-.27.82-.83.82-.66,0-.83-.98-.83-1.59s.17-1.59.83-1.59Z"/>
  <path class="cls-1" d="m16.09,32.73h0c.53-.13.9-.5.9-1.06,0-.88-.76-1.12-1.51-1.13h-1.84v4.34h.93v-1.75h.99c.31.01.37.34.39.58.04.39.08.78.16,1.17h1.03c-.17-.24-.21-.75-.25-1.03-.08-.6-.08-1.04-.79-1.12Zm-.74-.32h-.78v-1.15h.78c.41,0,.65.17.65.55s-.24.59-.65.59Z"/>
  <path class="cls-1" d="m20.57,32.9c0,.73-.04,1.4-.95,1.4s-.95-.67-.95-1.4v-2.36h-.93v2.72c0,1.15.83,1.71,1.88,1.71s1.88-.56,1.88-1.71v-2.72h-.93v2.36Z"/>
  <polygon class="cls-1" points="25.41 31.26 25.41 30.54 22.27 30.54 22.27 31.26 24.28 31.26 22.13 34.16 22.13 34.88 25.46 34.88 25.46 34.16 23.26 34.16 25.41 31.26"/>
  <path class="cls-1" d="m25.41,12.37h.08v-.86h-1.27v-5.2h-.49v-.33c.24-.48.36-.89.36-1.25,0-1.05-.79-1.95-1.78-2.14v-.15c.08-.09.14-.22.14-.36,0-.17-.09-.33-.22-.42l-.12-1.45v-.03h0s0,0,0,0C22.1.07,22.03,0,21.94,0s-.16.07-.16.16c0,0,0,0,0,0h-.05l-.13,1.5c-.12.1-.19.24-.19.4,0,.13.05.25.13.34l-.02.18c-.98.2-1.74,1.1-1.74,2.13,0,.36.12.77.35,1.25v.35h-.46v5.23h-1.3v-3.64l.44-.41v-.64l-.47-.25-.22-.42h-.64l-.43.45h-2.34l-.41-.43h-.64l-.41.43h-.96l-.41-.43h-.64l-.41.43h-2.27l-.43-.45h-.64l-.23.44-.44.23v.64l.42.39v3.66h-1.38v-5.25h-.45v-.32c.24-.48.36-.89.36-1.25,0-1.04-.77-1.94-1.76-2.13v-.16c.08-.09.14-.22.14-.37,0-.17-.09-.33-.21-.42l-.12-1.49h-.04s0,0,0,0C3.75.07,3.68,0,3.58,0s-.16.07-.16.16c0,0,0,0,0,0h-.01l-.13,1.5c-.12.1-.19.24-.19.4,0,.13.05.25.13.34l-.02.18c-.99.2-1.76,1.09-1.76,2.13,0,.36.12.77.35,1.25v.32h-.44v5.25H0v.86h.08l.49.43v4.36H.03v.8l.54.47v2.97H.03v.8l.54.47v2.72l-.53.46v1.17H0v.86h25.48v-.86h0v-1.17l-.53-.46v-2.78l.5-.44h.01v-.81h-.52v-2.99l.5-.44h.01v-.81h-.52v-4.38l.47-.41Zm-1.32,13.09h0s0,0,0,0l.54.94v.65H.88v-.65l.53-.92h.02v-.03l.02-.04h-.02v-13.01h.78v-5.25h.46,0s0,0,0,0v-.86h0v-.71s0-.01,0-.01h0c-.25-.3-.36-.56-.36-.87,0-.69.6-1.27,1.31-1.27s1.31.58,1.31,1.27c0,.35-.12.65-.34.83h-.01s-.01.76-.01.76h0v.86s.46,0,.46,0v5.25h3.1v-.86h0v-3.79l-.15-.34.54.08h8.69v-.03.04s.48-.09.48-.09l-.04.08h.02l-.11.25v4.64s.72,0,.72,0h0s1.43.01,1.43.01h.86v-5.25h.48v-1.57s-.01-.01-.01-.01h0c-.25-.3-.36-.56-.36-.87,0-.69.6-1.27,1.31-1.27s1.31.58,1.31,1.27c0,.35-.12.65-.34.83h-.01v1.62h.48v5.25h.72v13.01h-.02l.02.04Z"/>
</svg>