<?xml version="1.0" encoding="UTF-8"?>
<svg id="Layer_1" data-name="Layer 1" xmlns="http://www.w3.org/2000/svg" viewBox="0 0 54.57 43.91">
  <defs>
    <style>
      .cls-1 {
        fill-rule: evenodd;
      }
    </style>
  </defs>
  <g id="ead">
    <path class="cls-1" d="M9.76,11.22c1.95-1.55,4.6-1.47,5.9,.18,1.29,1.65,.76,4.25-1.19,5.8-1.95,1.55-4.6,1.47-5.9-.19-1.3-1.64-.76-4.25,1.19-5.79h0Z"/>
    <path class="cls-1" d="M5.47,6.07c1.14-.9,2.36-1.61,3.61-2.13-4.26,4.07-5.26,10.21-2.12,14.2,3.36,4.27,10.24,4.48,15.3,.47,.42-.33,.81-.68,1.18-1.06-.91,2.12-2.4,4.12-4.43,5.72-5.62,4.45-13.24,4.22-16.97-.52C-1.69,18.02-.15,10.52,5.47,6.07h0Z"/>
    <path class="cls-1" d="M10.94,1.1c1.2,0,2.18,.98,2.18,2.19s-.98,2.19-2.18,2.19-2.18-.98-2.18-2.19,.98-2.19,2.18-2.19h0Z"/>
    <path class="cls-1" d="M15.01,.17c.93,0,1.7,.76,1.7,1.7s-.76,1.7-1.7,1.7-1.7-.76-1.7-1.7,.76-1.7,1.7-1.7h0Z"/>
    <path class="cls-1" d="M18.94,0c.84,0,1.53,.69,1.53,1.53s-.69,1.53-1.53,1.53-1.53-.69-1.53-1.53,.69-1.53,1.53-1.53h0Z"/>
    <path class="cls-1" d="M22.78,.54c.76,0,1.37,.62,1.37,1.38s-.62,1.37-1.37,1.37-1.37-.61-1.37-1.37,.62-1.38,1.37-1.38h0Z"/>
    <path class="cls-1" d="M26.17,1.3c.68,0,1.24,.56,1.24,1.24s-.55,1.24-1.24,1.24-1.24-.56-1.24-1.24,.56-1.24,1.24-1.24h0Z"/>
    <path class="cls-1" d="M28.73,2.93c.61,0,1.11,.5,1.11,1.12s-.5,1.12-1.11,1.12-1.11-.5-1.11-1.12,.5-1.12,1.11-1.12h0Z"/>
    <path class="cls-1" d="M30.58,5.14c.55,0,1,.45,1,1s-.45,1-1,1-1-.45-1-1,.45-1,1-1h0Z"/>
    <path class="cls-1" d="M31.31,7.58c.5,0,.9,.4,.9,.9s-.41,.9-.9,.9-.9-.4-.9-.9,.4-.9,.9-.9h0Z"/>
    <path class="cls-1" d="M31.36,10c.45,0,.81,.37,.81,.81s-.36,.81-.81,.81-.81-.37-.81-.81,.37-.81,.81-.81h0Z"/>
    <path class="cls-1" d="M30.97,11.99c.4,0,.73,.33,.73,.73s-.33,.73-.73,.73-.73-.33-.73-.73,.33-.73,.73-.73h0Z"/>
    <path class="cls-1" d="M29.97,13.58c.29,0,.53,.24,.53,.53s-.24,.52-.53,.52-.52-.24-.52-.52,.24-.53,.52-.53h0Z"/>
    <path class="cls-1" d="M29.37,14.81c.15,0,.28,.12,.28,.29,0,.15-.13,.28-.28,.28s-.28-.13-.28-.28c0-.16,.12-.29,.28-.29h0Z"/>
    <path class="cls-1" d="M31.54,36.19c.09,0,.15-.01,.18-.04,.03-.03,.05-.08,.08-.17h.11v1.25h-.11c-.02-.08-.05-.14-.08-.17-.04-.03-.09-.04-.17-.04h-4.16v-.12c.09-.03,.15-.05,.17-.09,.03-.03,.04-.09,.04-.17v-3.86c0-.08-.01-.14-.04-.18-.03-.03-.09-.06-.17-.08v-.11h4.12c.08,0,.14-.02,.18-.04,.02-.03,.05-.09,.07-.17h.12v1.25h-.12c-.01-.08-.04-.14-.07-.17-.03-.03-.08-.04-.15-.04h-2.92v1.01h1.84c.09,0,.15-.01,.17-.04,.03-.03,.05-.09,.08-.17h.11v1.16h-.11c-.02-.08-.04-.14-.07-.17-.03-.02-.09-.04-.18-.04h-1.84v1.19h2.94Zm2.88-2.29v2.75c0,.09,.02,.14,.04,.18,.03,.03,.08,.06,.17,.07v.12h-1.3v-.12c.09-.03,.15-.05,.17-.09,.03-.03,.04-.09,.04-.17v-3.86c0-.08-.02-.14-.04-.18-.03-.03-.09-.06-.17-.08v-.11h1.63v.11s-.07,.02-.1,.05c-.03,.02-.04,.05-.05,.09,0,.03,0,.06,.02,.09,.02,.03,.06,.07,.1,.11l2.49,2.54v-2.63c0-.09,0-.15-.04-.18-.02-.03-.09-.06-.18-.08v-.11h1.31v.11c-.09,.02-.14,.05-.17,.09-.03,.03-.04,.09-.04,.17v3.86c0,.08,0,.14,.04,.18,.03,.03,.08,.06,.17,.07v.12h-1.51v-.12s.08-.03,.11-.05c.02-.02,.04-.05,.04-.08,0-.03,0-.06-.02-.1-.02-.03-.05-.07-.09-.11l-2.61-2.66h0Zm5.44,2.76l.49-1.09,.14,.06s0,.01,0,.03c0,.02-.01,.05-.01,.06,0,.11,.19,.24,.56,.37,.38,.13,.76,.2,1.16,.2,.35,0,.65-.06,.88-.18,.23-.12,.34-.27,.34-.44,0-.29-.39-.46-1.15-.48-.29-.01-.5-.02-.66-.04-.56-.05-.96-.18-1.23-.39-.27-.21-.4-.5-.4-.88,0-.45,.19-.82,.58-1.1,.4-.28,.91-.42,1.55-.42,.52,0,1.1,.14,1.73,.42,.16,.07,.25,.1,.28,.1,.02,0,.04,0,.07-.01,.02-.02,.05-.04,.1-.07l.1,.05-.56,1.08-.15-.07s0-.01,0-.02c0,0,0-.01,0-.03,0-.14-.17-.28-.52-.43-.35-.16-.71-.24-1.09-.24-.34,0-.6,.05-.81,.16-.21,.11-.3,.24-.3,.41,0,.25,.33,.39,.98,.43,.34,.02,.61,.05,.81,.07,.55,.07,.98,.22,1.27,.45,.29,.23,.44,.54,.44,.91,0,.44-.22,.8-.64,1.09-.42,.29-.97,.43-1.64,.43s-1.25-.13-1.83-.41c-.11-.05-.18-.07-.2-.07-.04,0-.06,0-.07,.02-.02,.01-.03,.04-.04,.07l-.14-.04h0Zm5.9,.36v-.12c.09-.02,.15-.04,.18-.08,.02-.03,.04-.09,.04-.17v-3.86c0-.08-.02-.14-.04-.17-.02-.03-.09-.06-.18-.09v-.11h2.82c.6,0,1.06,.11,1.39,.35,.33,.23,.49,.56,.49,.98s-.16,.77-.48,1.01c-.31,.25-.75,.37-1.29,.37h-1.71v1.51c0,.08,.01,.14,.04,.17,.03,.03,.09,.06,.18,.08v.12h-1.44Zm2.54-3.83h-1.32v1.16h1.35c.4,0,.7-.05,.88-.14,.19-.1,.28-.25,.28-.45s-.09-.35-.27-.43c-.18-.09-.49-.13-.92-.13h0Z"/>
    <path class="cls-1" d="M28.16,41.75v2.04h-.6v-4.49h3.09v.55h-2.49v1.37h2.2v.54h-2.2Zm3.85-2.45v4.49h-.61v-4.49h.61Zm4.53,2.25c0-.35-.06-.67-.19-.94-.12-.27-.31-.49-.54-.65-.24-.16-.51-.23-.83-.23s-.6,.07-.83,.23c-.23,.16-.42,.37-.54,.65-.12,.27-.19,.59-.19,.94s.06,.67,.19,.95c.12,.28,.31,.49,.54,.65,.24,.16,.51,.24,.83,.24s.59-.08,.82-.24c.24-.16,.42-.37,.54-.65,.13-.28,.19-.59,.19-.95h0Zm.61,0c0,.27-.03,.53-.11,.81-.07,.27-.2,.53-.37,.77-.17,.24-.39,.43-.68,.57-.28,.14-.62,.22-1.02,.22s-.74-.07-1.02-.22c-.28-.15-.51-.34-.68-.58-.17-.24-.3-.5-.37-.76-.08-.27-.11-.54-.11-.81s.04-.54,.11-.81c.07-.27,.19-.52,.37-.76,.17-.24,.4-.43,.68-.57,.29-.15,.62-.22,1.02-.22s.74,.07,1.02,.22c.29,.14,.51,.34,.68,.57,.17,.24,.29,.49,.37,.76,.08,.27,.11,.54,.11,.81h0Zm.51,.03v-.07s0-.05,0-.07c0-.37,.07-.72,.21-1.05,.14-.33,.36-.61,.67-.84,.31-.22,.69-.34,1.17-.37,.25,0,.51,.05,.78,.13,.27,.08,.5,.23,.71,.45,.21,.22,.34,.52,.4,.89h-.59c-.06-.31-.21-.55-.43-.7-.21-.15-.48-.23-.78-.23-.04,0-.09,0-.17,.01-.08,.01-.14,.01-.17,.01-.24,.05-.44,.15-.61,.3-.18,.15-.31,.35-.4,.6-.09,.25-.14,.53-.14,.85s.04,.6,.11,.84c.08,.24,.17,.44,.3,.59,.13,.15,.27,.27,.43,.34,.16,.07,.33,.1,.51,.11,0-.01,.02-.01,.02-.01,0,0,.01,0,.01,0,.4,0,.71-.12,.94-.33,.23-.21,.37-.52,.43-.9h.6c-.04,.33-.14,.63-.3,.9-.17,.27-.39,.48-.67,.63-.27,.15-.59,.24-.94,.24-.35,0-.65-.06-.91-.18-.26-.12-.47-.29-.63-.49-.16-.21-.29-.46-.37-.73-.08-.28-.14-.59-.16-.93h0Zm4.79,2.21v-4.49h2.13c.25,0,.49,.05,.7,.14,.22,.1,.39,.24,.52,.42,.13,.19,.19,.41,.19,.67,0,.49-.21,.84-.61,1.05,.17,.05,.29,.14,.37,.27,.08,.12,.13,.27,.15,.44,.02,.17,.03,.38,.03,.64,0,.23,.02,.41,.05,.53,.03,.12,.09,.2,.19,.23v.1h-.75c-.05-.15-.07-.38-.08-.7,0-.32-.01-.54-.03-.67-.01-.13-.07-.25-.19-.38-.11-.12-.29-.17-.55-.17h-1.52v1.92h-.6Zm.6-2.44h1.53c.17,0,.31-.03,.43-.1,.11-.07,.21-.17,.26-.28,.06-.12,.09-.24,.1-.37,0-.22-.06-.4-.17-.55-.12-.14-.31-.22-.57-.22h-1.58v1.52h0Zm3.84,.99v-3.04h.61v2.93c0,.22,.04,.42,.13,.59,.08,.18,.21,.31,.38,.41,.17,.1,.38,.15,.62,.15s.44-.04,.62-.15c.18-.09,.32-.23,.41-.4,.09-.17,.14-.37,.14-.59v-2.94h.61v3.02c0,.31-.08,.59-.23,.83-.15,.25-.37,.43-.65,.57-.28,.13-.6,.2-.96,.2-.29,0-.57-.06-.83-.19-.26-.13-.47-.3-.63-.54-.16-.24-.24-.52-.24-.85h0Zm4.16,1.45v-.5l2.74-3.44h-2.54v-.55h3.32v.52l-2.76,3.43h2.76v.53h-3.52Z"/>
    <path class="cls-1" d="M24.48,29.93v-12.41h5.2v2.29h-2.81v2.51h2.55v2.28h-2.55v2.91h2.81v2.42h-5.2Zm9.13-4.11h1.64c-.17-.87-.32-1.78-.45-2.73-.14-.94-.25-1.95-.35-3-.13,.93-.26,1.87-.4,2.82-.14,.96-.28,1.93-.43,2.91h0Zm-3.29,4.11l2.88-12.41h2.59l2.74,12.41h-2.46l-.41-2.18h-2.49l-.38,2.18h-2.46Zm11.55-2.3h.19c.88,0,1.55-.33,2.01-.99,.46-.66,.7-1.61,.7-2.87,0-1.35-.23-2.35-.68-3.01-.45-.65-1.13-.98-2.06-.98h-.16v7.85h0Zm-2.44,2.3v-12.41h2.12c1.91,0,3.34,.51,4.27,1.54,.95,1.03,1.41,2.58,1.41,4.67,0,1.26-.17,2.31-.52,3.16-.35,.85-.88,1.55-1.62,2.11-.44,.34-.93,.57-1.48,.71-.55,.14-1.34,.21-2.34,.21h-1.86Z"/>
    <rect x="24.42" y="32.2" width=".6" height="11.71"/>
  </g>
</svg>