<?xml version="1.0" encoding="UTF-8"?>
<svg id="Layer_1" data-name="Layer 1" xmlns="http://www.w3.org/2000/svg" viewBox="0 0 48.19 11.61">
  <defs>
    <style>
      .cls-1 {
        fill: #222221;
      }
    </style>
  </defs>
  <g>
    <path class="cls-1" d="m2.98,4.58v-2.53l-1.05,1.92h-.33l-1.05-1.92v2.53H0V1.03h.6l1.17,2.17,1.17-2.17h.6v3.55h-.57Z"/>
    <path class="cls-1" d="m5.35,4.58V1.03h.56v3.55h-.56Z"/>
    <path class="cls-1" d="m8.27,2.07v2.51h-.56V1.03h.46l2.01,2.57V1.03h.56v3.55h-.49l-1.98-2.51Z"/>
    <path class="cls-1" d="m12.54,4.58V1.03h.56v3.55h-.56Z"/>
    <path class="cls-1" d="m17,1.86c-.08-.08-.21-.17-.39-.24s-.37-.12-.57-.12c-.23,0-.4.04-.52.13-.12.09-.17.21-.17.36,0,.05,0,.09.02.13.01.04.03.07.05.1.02.03.05.06.09.09.04.03.08.05.12.07.04.02.09.04.16.06s.13.04.19.06c.06.02.14.04.24.06.16.04.29.07.4.11.11.04.22.08.32.14s.18.12.25.19c.06.07.11.15.15.25.04.1.06.21.06.34,0,.14-.02.27-.07.38-.05.11-.11.21-.18.29-.08.08-.17.14-.28.2-.11.05-.23.09-.36.12-.13.02-.26.04-.41.04-.27,0-.53-.04-.78-.12-.25-.08-.48-.2-.68-.36l.26-.48c.1.11.27.21.5.31s.47.15.72.15c.22,0,.39-.04.51-.12.12-.08.18-.19.18-.34,0-.06,0-.11-.03-.16s-.05-.09-.09-.13c-.04-.04-.09-.07-.14-.1-.05-.03-.11-.06-.2-.09-.09-.03-.16-.05-.23-.07-.07-.02-.17-.05-.29-.08-.19-.05-.34-.1-.46-.15-.12-.05-.23-.11-.32-.19-.09-.07-.16-.16-.2-.26-.04-.1-.06-.22-.06-.36,0-.17.03-.33.1-.46s.16-.25.27-.34c.12-.09.25-.16.41-.21s.33-.07.51-.07c.44,0,.84.13,1.2.4l-.25.46Z"/>
    <path class="cls-1" d="m21.57,1.52h-1.18v3.05h-.57V1.52h-1.18v-.5h2.93v.5Z"/>
    <path class="cls-1" d="m25.47,4.08v.5h-2.43V1.03h2.39v.5h-1.83v1.01h1.58v.47h-1.58v1.08h1.88Zm-.99-3.42l-.36-.11.29-.55h.52l-.45.66Z"/>
    <path class="cls-1" d="m27.05,4.58V1.03h1.55c.15,0,.3.03.44.1.14.07.26.15.35.26.09.11.17.23.22.37.06.14.08.28.08.42,0,.24-.06.46-.19.65-.13.19-.29.33-.5.39l.83,1.35h-.63l-.77-1.24h-.82v1.24h-.56Zm.56-1.73h.98c.15,0,.28-.06.38-.19.1-.13.15-.29.15-.47s-.06-.34-.17-.46c-.11-.13-.25-.19-.4-.19h-.95v1.32Z"/>
    <path class="cls-1" d="m31.36,4.58V1.03h.56v3.55h-.56Z"/>
    <path class="cls-1" d="m33.49,2.8c0-.23.04-.46.13-.68.09-.22.21-.41.36-.58.15-.16.33-.3.54-.4.21-.1.44-.15.68-.15s.48.05.69.16c.21.1.39.24.54.41.14.17.26.36.34.58s.12.44.12.66c0,.23-.04.46-.13.68s-.2.41-.35.57c-.15.16-.33.3-.54.39s-.44.15-.68.15c-.2,0-.39-.03-.57-.1-.18-.07-.34-.16-.47-.27-.14-.12-.25-.25-.35-.4s-.18-.32-.23-.49-.08-.36-.08-.54Zm1.7,1.29c.17,0,.33-.04.48-.11.14-.08.26-.17.36-.3.09-.12.16-.26.22-.41.05-.15.08-.31.08-.47s-.03-.33-.08-.48c-.06-.16-.13-.29-.22-.41s-.21-.21-.36-.29c-.14-.07-.3-.11-.46-.11s-.33.04-.48.11c-.15.07-.27.17-.36.29-.09.12-.17.26-.22.41-.05.15-.08.31-.08.47,0,.22.05.44.14.63.09.2.22.36.4.48.18.12.38.18.6.18Z"/>
    <path class="cls-1" d="m40.71,4.58V1.03h1.26c.28,0,.53.05.75.14.22.09.4.22.55.38.14.16.25.35.32.56s.11.44.11.69c0,.54-.16.97-.47,1.29-.32.33-.73.49-1.26.49h-1.26Zm1.26-3.05h-.7v2.56h.7c.24,0,.45-.06.63-.17s.31-.27.4-.46c.09-.19.13-.41.13-.66,0-.38-.1-.69-.31-.92-.21-.24-.49-.35-.85-.35Z"/>
    <path class="cls-1" d="m46.19,1.03h.53l1.38,3.55h-.59l-.37-.96h-1.37l-.37.96h-.6l1.39-3.55Zm.84,2.17l-.57-1.56-.59,1.56h1.16Z"/>
  </g>
  <g>
    <path class="cls-1" d="m30.07,9.22s-.03-.02-.06-.03c-.02-.01-.07-.04-.15-.08s-.15-.07-.22-.1c-.07-.03-.16-.05-.25-.08-.09-.02-.18-.04-.26-.04-.19,0-.29.06-.29.18,0,.03,0,.05.01.07,0,.02.02.04.05.06s.04.03.07.05.06.03.1.04c.05.02.08.03.12.04.03,0,.08.02.15.04.07.02.12.04.16.05.14.04.26.09.36.13s.2.09.29.16.17.13.23.2c.06.07.1.16.14.26.03.1.05.22.05.35,0,.16-.03.31-.08.44-.05.13-.12.24-.21.32-.09.08-.19.15-.31.21s-.24.09-.37.12c-.13.02-.26.03-.4.03-.25,0-.52-.04-.8-.11-.28-.08-.53-.18-.74-.3l.42-.86s.04.03.07.04.09.05.18.09c.09.04.18.08.26.12s.19.07.31.09c.12.03.23.04.33.04.19,0,.28-.05.28-.16,0-.04-.01-.07-.04-.1-.02-.03-.06-.06-.12-.08-.06-.03-.11-.05-.17-.06s-.13-.04-.23-.07c-.1-.03-.18-.05-.24-.07-.32-.11-.55-.24-.69-.39-.14-.15-.21-.35-.21-.61,0-.19.04-.36.11-.52.07-.15.17-.28.29-.38.12-.1.26-.17.42-.22.16-.05.33-.08.5-.08.38,0,.82.13,1.33.38l-.42.81Z"/>
    <path class="cls-1" d="m32.83,8.06h1.09l1.13,3.56h-.99l-.21-.7h-.95l-.21.7h-.99l1.14-3.56Zm.86,2.21l-.32-1.25-.33,1.25h.65Z"/>
    <path class="cls-1" d="m37.9,11.64c-.22,0-.42-.03-.6-.09s-.33-.15-.45-.25c-.12-.11-.23-.24-.31-.39-.08-.15-.14-.31-.18-.48-.04-.17-.06-.35-.06-.54v-1.83h.98v1.83c0,.12.01.24.04.34s.06.2.11.28c.05.08.11.15.2.2.08.05.18.07.29.07s.21-.02.29-.07c.08-.05.15-.12.2-.2s.08-.18.11-.28c.02-.1.04-.21.04-.33v-1.83h.98v1.83c0,.25-.03.48-.1.69-.06.21-.16.4-.29.56-.13.16-.3.28-.5.37s-.45.13-.72.13Zm.3-3.74l-.6-.16.25-.71h.85l-.49.87Z"/>
    <path class="cls-1" d="m41.07,11.61v-3.56h1.37c.29,0,.55.05.78.14s.42.22.57.38c.15.16.26.35.34.56.08.21.12.44.12.69,0,.54-.16.97-.49,1.29-.33.33-.76.49-1.3.49h-1.37Zm1.37-2.7h-.39v1.85h.39c.25,0,.45-.09.59-.26.14-.17.21-.4.21-.67s-.07-.5-.22-.67c-.14-.17-.34-.25-.59-.25Z"/>
    <path class="cls-1" d="m48.19,10.76v.85h-2.53v-3.56h2.49v.85h-1.51v.5h1.29v.79h-1.29v.56h1.56Z"/>
  </g>
</svg>