<?xml version="1.0" encoding="UTF-8"?>
<svg id="Layer_1" data-name="Layer 1" xmlns="http://www.w3.org/2000/svg" viewBox="0 0 48.19 12.73">
  <defs>
    <style>
      .cls-1 {
        fill: #222221;
      }
    </style>
  </defs>
  <g>
    <path class="cls-1" d="m2.99,4.59v-2.53l-1.05,1.92h-.33l-1.05-1.92v2.53h-.56V1.03h.6l1.18,2.18,1.18-2.18h.6v3.56h-.57Z"/>
    <path class="cls-1" d="m5.36,4.59V1.03h.56v3.56h-.56Z"/>
    <path class="cls-1" d="m8.28,2.07v2.52h-.56V1.03h.46l2.02,2.57V1.03h.57v3.55h-.49l-1.99-2.52Z"/>
    <path class="cls-1" d="m12.57,4.59V1.03h.56v3.56h-.56Z"/>
    <path class="cls-1" d="m17.04,1.86c-.08-.08-.21-.17-.39-.24s-.37-.12-.57-.12c-.23,0-.4.04-.52.13s-.17.21-.17.36c0,.05,0,.09.02.13.01.04.03.07.05.1.02.03.05.06.09.09.04.03.08.05.12.07s.09.04.16.06.13.04.2.06c.06.02.14.04.24.06.16.04.29.07.4.11.11.04.22.08.32.14.1.06.19.12.25.19s.11.15.15.25c.04.1.05.21.05.34,0,.14-.02.27-.07.38-.04.11-.11.21-.18.29-.08.08-.17.14-.28.2-.11.05-.23.09-.36.12-.13.02-.26.04-.41.04-.27,0-.53-.04-.79-.12-.25-.08-.48-.2-.68-.36l.26-.48c.1.11.27.21.5.31.23.1.47.15.72.15.22,0,.39-.04.51-.12.12-.08.18-.19.18-.34,0-.06,0-.11-.03-.16-.02-.05-.05-.09-.09-.13-.04-.04-.09-.07-.14-.1s-.11-.06-.2-.09-.16-.05-.23-.07-.17-.05-.29-.08c-.19-.05-.34-.1-.47-.15-.12-.05-.23-.11-.32-.19-.09-.07-.16-.16-.21-.26s-.06-.22-.06-.36c0-.17.03-.33.1-.46s.16-.25.27-.34c.12-.09.25-.16.41-.21s.33-.07.51-.07c.44,0,.84.13,1.2.4l-.25.46Z"/>
    <path class="cls-1" d="m21.61,1.52h-1.18v3.06h-.57V1.52h-1.19v-.5h2.94v.5Z"/>
    <path class="cls-1" d="m25.52,4.09v.5h-2.44V1.03h2.39v.5h-1.83v1.01h1.59v.47h-1.59v1.09h1.88Zm-1-3.43l-.36-.11.29-.55h.53l-.45.66Z"/>
    <path class="cls-1" d="m27.11,4.59V1.03h1.55c.16,0,.3.03.44.1.14.07.26.16.35.26.09.11.17.23.22.37s.08.28.08.42c0,.24-.06.46-.19.65s-.3.33-.5.39l.84,1.35h-.63l-.77-1.24h-.83v1.24h-.56Zm.56-1.74h.98c.16,0,.28-.06.38-.19s.15-.29.15-.47-.06-.34-.17-.47c-.12-.13-.25-.19-.4-.19h-.95v1.33Z"/>
    <path class="cls-1" d="m31.42,4.59V1.03h.56v3.56h-.56Z"/>
    <path class="cls-1" d="m33.56,2.81c0-.23.04-.46.13-.68.09-.22.21-.41.36-.58s.33-.3.55-.4c.21-.1.44-.15.68-.15s.48.05.69.16.39.24.54.41.26.36.34.58c.08.22.12.44.12.66,0,.23-.04.46-.13.68-.09.22-.21.41-.35.58-.15.16-.33.3-.54.39s-.44.15-.68.15c-.2,0-.39-.03-.57-.1-.18-.07-.34-.16-.47-.27-.14-.12-.25-.25-.35-.4-.1-.15-.18-.32-.23-.49-.05-.18-.08-.36-.08-.54Zm1.71,1.3c.17,0,.33-.04.48-.11s.26-.17.36-.3c.09-.12.17-.26.22-.41.05-.15.08-.31.08-.47s-.03-.33-.08-.49c-.05-.16-.13-.29-.22-.41s-.21-.22-.36-.29c-.14-.07-.3-.11-.46-.11s-.33.04-.48.11c-.15.07-.27.17-.36.3-.09.12-.17.26-.22.41-.05.15-.08.31-.08.47,0,.23.04.44.14.63.09.2.22.36.4.48.18.12.38.19.6.19Z"/>
    <path class="cls-1" d="m40.79,4.59V1.03h1.26c.28,0,.53.05.75.14s.4.22.55.38.25.35.32.56c.07.21.11.44.11.69,0,.54-.16.97-.47,1.3s-.74.49-1.26.49h-1.26Zm1.26-3.06h-.7v2.56h.7c.25,0,.46-.06.63-.17s.31-.27.4-.46c.09-.19.13-.41.13-.66,0-.38-.1-.69-.31-.92-.21-.24-.49-.35-.85-.35Z"/>
    <path class="cls-1" d="m46.28,1.03h.53l1.38,3.56h-.59l-.37-.97h-1.37l-.37.97h-.6l1.39-3.56Zm.84,2.18l-.57-1.56-.59,1.56h1.16Z"/>
  </g>
  <g>
    <path class="cls-1" d="m16.57,10.77v.85h-2.53v-3.56h2.49v.85h-1.51v.5h1.29v.79h-1.29v.56h1.56Z"/>
    <path class="cls-1" d="m18.02,11.62v-3.56h1.37c.29,0,.55.05.78.14.23.09.42.22.57.38.15.16.26.35.34.56.08.21.12.44.12.69,0,.54-.16.97-.49,1.3-.33.33-.76.49-1.3.49h-1.37Zm1.37-2.71h-.39v1.85h.39c.25,0,.45-.09.59-.26.14-.17.21-.4.21-.67s-.07-.5-.21-.67c-.14-.17-.34-.25-.59-.25Z"/>
    <path class="cls-1" d="m24.17,11.65c-.22,0-.42-.03-.6-.09s-.33-.15-.45-.25c-.12-.11-.23-.24-.31-.39-.08-.15-.14-.31-.18-.48-.04-.17-.06-.35-.06-.54v-1.83h.98v1.83c0,.12.01.24.03.34.02.1.06.2.11.28.05.08.11.15.2.2.08.05.18.07.29.07s.21-.02.29-.07.15-.12.2-.2c.05-.09.08-.18.11-.28s.04-.21.04-.33v-1.83h.98v1.83c0,.25-.03.48-.1.69s-.16.4-.29.56-.3.28-.5.37c-.21.09-.45.13-.72.13Z"/>
    <path class="cls-1" d="m28.96,8.04c.33,0,.63.07.89.21.26.14.45.33.57.57l-.75.53c-.03-.08-.08-.15-.13-.21s-.12-.11-.19-.14c-.07-.03-.14-.05-.2-.07-.07-.01-.14-.02-.21-.02-.13,0-.25.03-.36.08-.11.05-.19.13-.25.22-.06.09-.11.19-.14.3-.03.11-.05.22-.05.34,0,.26.07.48.22.67s.35.28.59.28c.1,0,.19-.01.28-.04.09-.03.17-.07.25-.14.08-.07.14-.15.18-.25l.8.47c-.07.17-.18.32-.35.45-.17.13-.35.22-.56.29-.2.06-.41.09-.62.09-.25,0-.49-.05-.72-.16s-.42-.25-.57-.42-.28-.37-.36-.59c-.09-.22-.13-.44-.13-.67s.04-.43.13-.64c.08-.21.2-.4.35-.57.15-.17.34-.3.58-.41.23-.1.49-.15.76-.15Z"/>
    <path class="cls-1" d="m32.56,8.06h1.09l1.13,3.56h-.99l-.21-.7h-.95l-.21.7h-1l1.14-3.56Zm.86,2.21l-.32-1.25-.33,1.25h.65Z"/>
    <path class="cls-1" d="m39.06,10.82c-.09.21-.25.39-.48.53-.23.14-.48.23-.76.28.16.16.24.34.24.53,0,.16-.05.29-.16.4-.1.11-.25.16-.45.16s-.41-.06-.62-.17l.22-.49c.07.06.15.1.24.1.06,0,.11-.02.15-.05.04-.04.06-.08.06-.14,0-.1-.06-.21-.19-.33-.23-.03-.44-.1-.64-.21-.2-.12-.36-.26-.5-.42s-.24-.35-.32-.56c-.08-.21-.12-.41-.12-.62s.04-.43.13-.64c.08-.21.2-.4.35-.57.15-.17.34-.3.58-.41.23-.1.49-.15.76-.15.33,0,.63.07.89.21.26.14.45.33.57.57l-.75.53c-.03-.08-.08-.15-.13-.21s-.12-.11-.19-.14c-.07-.03-.14-.05-.2-.07-.07-.01-.14-.02-.21-.02-.13,0-.25.03-.36.08-.11.05-.19.13-.25.22-.06.09-.11.19-.14.3-.03.11-.05.22-.05.34,0,.26.07.48.22.67s.35.28.59.28c.1,0,.19-.01.28-.04.09-.03.17-.07.25-.14.08-.07.14-.15.18-.25l.8.47Z"/>
    <path class="cls-1" d="m41.17,8.06h1.09l1.13,3.56h-.99l-.21-.7h-.95l-.21.7h-1l1.14-3.56Zm.22-.47s-.08,0-.11.02-.05.04-.07.06c-.02.02-.03.05-.03.07,0,.03-.01.05-.01.06,0,.01,0,.02,0,.03h-.51s0-.09.02-.15.04-.13.08-.2c.04-.08.08-.14.13-.21s.12-.12.2-.16.17-.07.26-.07c.07,0,.14.01.21.04.07.03.12.06.16.09.04.03.09.06.14.09s.11.04.16.04c.04,0,.08,0,.11-.03.03-.02.06-.04.07-.06s.03-.05.04-.07c.01-.03.02-.05.02-.06,0-.02,0-.03,0-.03h.5s0,.07-.02.13c-.02.06-.04.12-.08.2-.04.08-.08.15-.13.22-.05.07-.12.13-.21.17-.09.05-.18.07-.27.07-.07,0-.14-.01-.2-.04-.07-.03-.12-.05-.16-.08-.04-.03-.09-.06-.15-.08s-.11-.04-.16-.04Zm.64,2.68l-.32-1.25-.33,1.25h.65Z"/>
    <path class="cls-1" d="m44.35,9.84c0-.23.05-.46.14-.68.09-.22.22-.41.37-.57.16-.16.35-.3.58-.4s.47-.15.73-.15.51.05.73.16c.23.1.42.24.57.41.15.17.27.36.36.58.09.22.13.44.13.67s-.05.46-.14.67c-.09.22-.21.41-.37.57s-.35.3-.58.4c-.23.1-.47.15-.73.15s-.51-.05-.73-.15c-.23-.1-.42-.24-.57-.41s-.27-.36-.36-.58c-.09-.22-.13-.44-.13-.67Zm1.81.95c.14,0,.26-.03.36-.08.11-.05.19-.13.25-.22.06-.09.11-.19.14-.3.03-.11.05-.22.05-.35,0-.17-.03-.32-.09-.46-.06-.14-.15-.25-.28-.34-.13-.09-.28-.13-.45-.13-.13,0-.26.03-.36.08-.11.05-.19.13-.25.22-.06.09-.11.19-.14.3-.03.11-.05.22-.05.34s.02.24.05.35.08.21.15.3.15.16.26.21c.11.05.23.08.36.08Z"/>
  </g>
</svg>